<?xml version="1.0" encoding="UTF-8" standalone="no" ?>
<!DOCTYPE svg PUBLIC "-//W3C//DTD SVG 1.1//EN" "http://www.w3.org/Graphics/SVG/1.1/DTD/svg11.dtd">
<svg xmlns="http://www.w3.org/2000/svg" xmlns:xlink="http://www.w3.org/1999/xlink" version="1.1" width="1000" height="1000" viewBox="0 0 1000 1000" xml:space="preserve">
<desc>Created with Fabric.js 4.6.0</desc>
<defs>
</defs>
<g transform="matrix(1 0 0 1 493.03 488.07)" id="QFNji86WbjphcO0OHnMVj"  >
<path style="stroke: rgb(0,0,0); stroke-width: 40; stroke-dasharray: none; stroke-linecap: butt; stroke-dashoffset: 0; stroke-linejoin: miter; stroke-miterlimit: 4; fill: rgb(255,255,255); fill-opacity: 0; fill-rule: nonzero; opacity: 1;" vector-effect="non-scaling-stroke"  transform=" translate(0, 0)" d="M 285.33623 -345.48172 L -199.09093000000001 -345.48172 C -246.72289 -345.48172 -285.33623 -306.86838 -285.33623 -259.23642 L -285.33623 -72.64577 L -285.33623 -72.64577 C -285.33623 -25.01381 -246.72289 13.599530000000001 -199.09093000000001 13.599530000000001 L 123.83661000000001 13.599530000000001 L 199.09093000000001 13.599530000000001 L 199.09093000000001 13.599530000000001 C 246.72289 13.599530000000001 285.33623 52.21287 285.33623 99.84483 L 285.33623 259.23642 L 285.33623 259.23642 C 285.33623 306.86838 246.72289 345.48172 199.09093000000001 345.48172 L -285.33623 345.48172" stroke-linecap="round" />
</g>
<g transform="matrix(1 0 0 1 6462.86 6765.75)" id="xCeBpi5HJXdPgcyJ3auih"  >
<path style="stroke: rgb(0,0,0); stroke-width: 40; stroke-dasharray: none; stroke-linecap: butt; stroke-dashoffset: 0; stroke-linejoin: miter; stroke-miterlimit: 4; fill: rgb(255,255,255); fill-opacity: 0; fill-rule: nonzero; opacity: 1;" vector-effect="non-scaling-stroke"  transform=" translate(0, 0)" d="M -192.34783 151.96599 L 192.34782 -151.96599999999998 L -192.34783 -151.96599999999998" stroke-linecap="round" />
</g>
<g transform="matrix(1 0 0 1 833.63 511.14)" id="cqQxcZyw_P5MEmuiEDJLN"  >
<path style="stroke: rgb(0,0,0); stroke-width: 40; stroke-dasharray: none; stroke-linecap: butt; stroke-dashoffset: 0; stroke-linejoin: miter; stroke-miterlimit: 4; fill: rgb(255,255,255); fill-opacity: 0; fill-rule: nonzero; opacity: 1;" vector-effect="non-scaling-stroke"  transform=" translate(0, 0)" d="M 0 0" stroke-linecap="round" />
</g>
<g transform="matrix(1 0 0 1 724.2 505.97)" id="gVVDYbvBuMN7MsJ3tbnCA"  >
<path style="stroke: rgb(0,0,0); stroke-width: 40; stroke-dasharray: none; stroke-linecap: butt; stroke-dashoffset: 0; stroke-linejoin: miter; stroke-miterlimit: 4; fill: rgb(255,255,255); fill-opacity: 0; fill-rule: nonzero; opacity: 1;" vector-effect="non-scaling-stroke"  transform=" translate(0, 0)" d="M 0 0" stroke-linecap="round" />
</g>
<g transform="matrix(1 0 0 1 41580.75 42387.48)" id="Wd3e2yzpiFX3wlZ0HwB7A"  >
<path style="stroke: rgb(0,0,0); stroke-width: 40; stroke-dasharray: none; stroke-linecap: butt; stroke-dashoffset: 0; stroke-linejoin: miter; stroke-miterlimit: 4; fill: rgb(255,255,255); fill-opacity: 0; fill-rule: nonzero; opacity: 1;" vector-effect="non-scaling-stroke"  transform=" translate(0, 0)" d="M 28.95855 107.2848 L 114.83612000000001 107.2848 C 151.92266 107.2848 181.98724 77.22022000000001 181.98724 40.13368 L 181.98724 -40.13368 L 181.98724 -40.13368 C 181.98724 -77.22022 151.92266 -107.2848 114.83612000000001 -107.2848 L 79.96812 -107.2848 L -181.98725000000002 -107.2848" stroke-linecap="round" />
</g>
<g transform="matrix(1 0 0 1 496.19 490.56)" id="qcanmkW__mnggH4uxIGrO"  >
<path style="stroke: rgb(0,0,0); stroke-width: 40; stroke-dasharray: none; stroke-linecap: butt; stroke-dashoffset: 0; stroke-linejoin: miter; stroke-miterlimit: 4; fill: rgb(255,255,255); fill-opacity: 0; fill-rule: nonzero; opacity: 1;" vector-effect="non-scaling-stroke"  transform=" translate(0, 0)" d="M -158.04621 -217.30678 L 256.90984000000003 -217.30678 L -256.90985 217.30678 L 208.0032 217.30678" stroke-linecap="round" />
</g>
</svg>